<svg width="40" height="40" viewBox="0 0 448 512" xmlns="http://www.w3.org/2000/svg"><path fill="#E4405F" d="M224.1 141c-63.6 0-114.9 51.3-114.9 114.9 0 63.6 51.3 114.9 114.9 114.9 63.6 0 114.9-51.3 114.9-114.9 0-63.6-51.3-114.9-114.9-114.9zm0 189.3c-41 0-74.4-33.4-74.4-74.4 0-41 33.4-74.4 74.4-74.4 41 0 74.4 33.4 74.4 74.4 0 41-33.4 74.4-74.4 74.4zm146.4-194.3c0 14.9-12 26.8-26.8 26.8-14.9 0-26.8-12-26.8-26.8 0-14.9 12-26.8 26.8-26.8 14.9 0 26.8 11.9 26.8 26.8z"/><path fill="#E4405F" d="M398.8 80c-7.8-20.7-24.3-37.2-45-45C325.4 26.6 224 26.6 224 26.6s-101.4 0-129.8 8.4c-20.7 7.8-37.2 24.3-45 45C41.6 108.4 41.6 210 41.6 210s0 101.6 8.4 129.9c7.8 20.7 24.3 37.2 45 45 28.4 8.4 129.8 8.4 129.8 8.4s101.4 0 129.8-8.4c20.7-7.8 37.2-24.3 45-45 8.4-28.4 8.4-129.9 8.4-129.9s0-101.6-8.4-129.9zM398.8 339c-1.7 5.3-5.1 9.7-9.8 12.3-8.4 4.5-32.6 7.3-82.7 7.3H141.6c-50.1 0-74.3-2.8-82.7-7.3-4.7-2.6-8.1-7-9.8-12.3-4.5-13-7.3-42.2-7.3-129 0-86.8 2.8-116 7.3-129 1.7-5.3 5.1-9.7 9.8-12.3 8.4-4.5 32.6-7.3 82.7-7.3h164.7c50.1 0 74.3 2.8 82.7 7.3 4.7 2.6 8.1 7 9.8 12.3 4.5 13 7.3 42.2 7.3 129 0 86.8-2.8 116-7.3 129z"/></svg>
