<svg width="40" height="40" viewBox="0 0 448 512" xmlns="http://www.w3.org/2000/svg"><path fill="#25D366" d="M380.9 97.1C339-13.7 208.3-48.5 118.1 11.6 45.9 62.2 12.5 154.3 25.8 240.3l-24.6 90.9 93.3-24.5c83.5 45.8 184.7 23.8 244.2-45.4 64.7-74.1 41.9-205.9-57.8-264.2zM188.8 348.6c-35.3-18.6-62.2-49.9-73-87.3-3.1-10.4-1.9-21.5 3.4-30.8l16.1-28.3c5.5-9.8 17.5-13.1 27.3-7.6l28.9 15.8c9.8 5.5 13.1 17.5 7.6 27.3l-8.5 15c4.3 14 15 25.9 30.5 33.8 15.5 7.8 32.3 6.7 46.5 1.5l8.5-15c5.5-9.8 17.5-13.1 27.3-7.6l28.9 15.8c9.8 5.5 13.1 17.5 7.6 27.3l-16.1 28.3c-5.3 9.2-14.5 16.7-25.3 21.3-39 16.6-83.6 18-123.5.3z"/></svg>
