<svg width="40" height="40" viewBox="0 0 576 512" xmlns="http://www.w3.org/2000/svg"><path fill="#FF0000" d="M549.655 124.083c-6.281-23.65-24.855-42.224-48.506-48.506C458.48 64 288 64 288 64S117.52 64 74.851 75.577c-23.65 6.281-42.224 24.856-48.506 48.506C15.77 166.76 15.77 256 15.77 256s0 89.24 10.575 131.917c6.282 23.65 24.856 42.224 48.506 48.506C117.52 448 288 448 288 448s170.48 0 213.149-11.577c23.651-6.282 42.225-24.856 48.506-48.506C560.23 345.24 560.23 256 560.23 256s0-89.24-10.575-131.917zM232 334V178l142 78-142 78z"/></svg>
